<svg width="25" height="50" viewBox="0 0 25 50" fill="none" xmlns="http://www.w3.org/2000/svg">
<path d="M1.37216 26.7069C0.457387 26.7069 0 26.313 0 25.5252V24.4748C0 23.687 0.457387 23.2931 1.37216 23.2931C3.25398 23.2931 5.18807 22.6453 7.17443 21.3498C9.18693 20.0368 10.1932 17.8659 10.1932 14.8372V8.66597C10.1932 5.70728 11.0165 3.52766 12.6631 2.1271C14.3097 0.709034 17.5506 0 22.3858 0C23.5619 0 24.15 0.306373 24.15 0.919118V2.49475C24.15 3.10749 23.5619 3.41387 22.3858 3.41387C19.8244 3.41387 18.2955 3.77276 17.7989 4.49055C17.3284 5.20833 17.0932 6.39881 17.0932 8.06197V15.5725C17.0932 19.1614 15.8909 21.5861 13.4864 22.8466C11.108 24.1071 9.08239 24.8162 7.40966 24.9737V25.0263C9.08239 25.1838 11.108 25.8929 13.4864 27.1534C15.8909 28.4139 17.0932 30.8386 17.0932 34.4275V41.938C17.0932 43.6012 17.3284 44.7917 17.7989 45.5095C18.2955 46.2272 19.8244 46.5861 22.3858 46.5861C23.5619 46.5861 24.15 46.8925 24.15 47.5053V49.0809C24.15 49.6936 23.5619 50 22.3858 50C17.5506 50 14.3097 49.291 12.6631 47.8729C11.0165 46.4723 10.1932 44.2927 10.1932 41.334V35.1628C10.1932 32.1341 9.18693 29.972 7.17443 28.6765C5.18807 27.3634 3.25398 26.7069 1.37216 26.7069Z" fill="url(#paint0_linear_1018_75)"/>
<defs>
<linearGradient id="paint0_linear_1018_75" x1="11.9689" y1="-14.9614" x2="11.9689" y2="62.7258" gradientUnits="userSpaceOnUse">
<stop stop-color="#7D3CFF"/>
<stop offset="1" stop-color="#344BF6"/>
</linearGradient>
</defs>
</svg>
