<svg width="151" height="36" viewBox="0 0 151 36" fill="none" xmlns="http://www.w3.org/2000/svg">
<g clip-path="url(#clip0_1014_75)">
<path d="M15.7148 28.3276C14.335 28.9956 12.5332 29.3296 10.3096 29.3296C7.40918 29.3296 5.12842 28.4771 3.46729 26.772C1.80615 25.0669 0.975586 22.7949 0.975586 19.9561C0.975586 16.9326 1.90723 14.4805 3.77051 12.5996C5.64258 10.7188 8.06836 9.77832 11.0479 9.77832C12.8936 9.77832 14.4492 10.0112 15.7148 10.4771V14.5771C14.4492 13.8213 13.0078 13.4434 11.3906 13.4434C9.61523 13.4434 8.18262 14.0015 7.09277 15.1177C6.00293 16.2339 5.45801 17.7456 5.45801 19.6528C5.45801 21.481 5.97217 22.9399 7.00049 24.0298C8.02881 25.1108 9.41309 25.6514 11.1533 25.6514C12.8145 25.6514 14.335 25.2471 15.7148 24.4385V28.3276ZM25.0356 29.3296C22.7856 29.3296 21.0146 28.7012 19.7227 27.4443C18.4395 26.1787 17.7979 24.4648 17.7979 22.3027C17.7979 20.0703 18.4658 18.3257 19.8018 17.0688C21.1377 15.8032 22.9438 15.1704 25.2202 15.1704C27.4614 15.1704 29.2192 15.8032 30.4937 17.0688C31.7681 18.3257 32.4053 19.9912 32.4053 22.0654C32.4053 24.3066 31.7461 26.0776 30.4277 27.3784C29.1182 28.6792 27.3208 29.3296 25.0356 29.3296ZM25.1411 18.3608C24.1567 18.3608 23.3921 18.6992 22.8472 19.376C22.3022 20.0527 22.0298 21.0107 22.0298 22.25C22.0298 24.8428 23.0757 26.1392 25.1675 26.1392C27.1626 26.1392 28.1602 24.8076 28.1602 22.1445C28.1602 19.6221 27.1538 18.3608 25.1411 18.3608ZM48.3179 29H44.1519V27.1411H44.0991C43.1499 28.6001 41.7568 29.3296 39.9199 29.3296C38.2324 29.3296 36.8745 28.7363 35.8462 27.5498C34.8179 26.3545 34.3037 24.689 34.3037 22.5532C34.3037 20.3208 34.8706 18.5322 36.0044 17.1875C37.1382 15.8428 38.6235 15.1704 40.4604 15.1704C42.2007 15.1704 43.4136 15.7944 44.0991 17.0425H44.1519V9.01367H48.3179V29ZM44.231 22.4346V21.4194C44.231 20.5405 43.9761 19.811 43.4663 19.231C42.9565 18.6509 42.293 18.3608 41.4756 18.3608C40.5527 18.3608 39.832 18.7256 39.3135 19.4551C38.7949 20.1758 38.5356 21.1689 38.5356 22.4346C38.5356 23.6211 38.7861 24.5352 39.2871 25.1768C39.7881 25.8184 40.4824 26.1392 41.3701 26.1392C42.2139 26.1392 42.8994 25.8008 43.4268 25.124C43.9629 24.4473 44.231 23.5508 44.231 22.4346ZM63.9536 23.4365H55.147C55.2876 25.3965 56.5225 26.3765 58.8516 26.3765C60.3369 26.3765 61.6421 26.0249 62.7671 25.3218V28.3276C61.519 28.9956 59.8975 29.3296 57.9023 29.3296C55.7227 29.3296 54.0308 28.7275 52.8267 27.5234C51.6226 26.3105 51.0205 24.623 51.0205 22.4609C51.0205 20.2197 51.6709 18.4443 52.9717 17.1348C54.2725 15.8252 55.8721 15.1704 57.7705 15.1704C59.7393 15.1704 61.2598 15.7549 62.332 16.9238C63.4131 18.0928 63.9536 19.6792 63.9536 21.6831V23.4365ZM60.0908 20.8789C60.0908 18.9453 59.3086 17.9785 57.7441 17.9785C57.0762 17.9785 56.4961 18.2554 56.0039 18.8091C55.5205 19.3628 55.2261 20.0527 55.1206 20.8789H60.0908ZM75.9507 13.3643C75.2476 13.3643 74.6719 13.1577 74.2236 12.7446C73.7754 12.3228 73.5513 11.8086 73.5513 11.2021C73.5513 10.5781 73.7754 10.0684 74.2236 9.67285C74.6719 9.27734 75.2476 9.07959 75.9507 9.07959C76.6626 9.07959 77.2383 9.27734 77.6777 9.67285C78.126 10.0684 78.3501 10.5781 78.3501 11.2021C78.3501 11.835 78.126 12.3535 77.6777 12.7578C77.2383 13.1621 76.6626 13.3643 75.9507 13.3643ZM78.0073 29H73.8413V15.5H78.0073V29ZM102.951 29H98.7979V21.3008C98.7979 19.3408 98.0771 18.3608 96.6357 18.3608C95.9502 18.3608 95.3921 18.6553 94.9614 19.2441C94.5308 19.833 94.3154 20.5669 94.3154 21.4458V29H90.1494V21.2217C90.1494 19.3145 89.4419 18.3608 88.0269 18.3608C87.3149 18.3608 86.7437 18.6421 86.313 19.2046C85.8911 19.7671 85.6802 20.5317 85.6802 21.4985V29H81.5142V15.5H85.6802V17.6094H85.7329C86.1636 16.8887 86.7656 16.3042 87.5391 15.856C88.3213 15.3989 89.1738 15.1704 90.0967 15.1704C92.0039 15.1704 93.3091 16.0098 94.0122 17.6885C95.0405 16.0098 96.5522 15.1704 98.5474 15.1704C101.483 15.1704 102.951 16.981 102.951 20.6021V29ZM117.479 29H113.537V27.062H113.484C112.579 28.5737 111.239 29.3296 109.463 29.3296C108.154 29.3296 107.121 28.9604 106.365 28.2222C105.618 27.4751 105.245 26.4819 105.245 25.2427C105.245 22.6235 106.796 21.1118 109.898 20.7075L113.563 20.2197C113.563 18.7432 112.764 18.0049 111.164 18.0049C109.556 18.0049 108.026 18.4839 106.576 19.4419V16.3042C107.156 16.0054 107.947 15.7417 108.949 15.5132C109.96 15.2847 110.878 15.1704 111.705 15.1704C115.554 15.1704 117.479 17.0908 117.479 20.9316V29ZM113.563 23.5156V22.606L111.111 22.9224C109.758 23.0981 109.081 23.709 109.081 24.7549C109.081 25.2295 109.244 25.6206 109.569 25.9282C109.903 26.2271 110.351 26.3765 110.914 26.3765C111.696 26.3765 112.333 26.1084 112.825 25.5723C113.317 25.0273 113.563 24.3418 113.563 23.5156ZM134.011 27.4575C134.011 29.9624 133.286 31.9004 131.836 33.2715C130.386 34.6514 128.285 35.3413 125.534 35.3413C123.715 35.3413 122.273 35.082 121.21 34.5635V31.0566C122.599 31.8652 124 32.2695 125.416 32.2695C126.822 32.2695 127.912 31.896 128.685 31.1489C129.458 30.4106 129.845 29.4043 129.845 28.1299V27.062H129.792C128.843 28.5737 127.441 29.3296 125.587 29.3296C123.864 29.3296 122.498 28.7231 121.487 27.5103C120.476 26.2974 119.971 24.6714 119.971 22.6323C119.971 20.3472 120.533 18.5322 121.658 17.1875C122.783 15.8428 124.264 15.1704 126.101 15.1704C127.745 15.1704 128.975 15.8032 129.792 17.0688H129.845V15.5H134.011V27.4575ZM129.898 22.5137V21.4458C129.898 20.5933 129.643 19.8682 129.133 19.2705C128.632 18.6641 127.978 18.3608 127.169 18.3608C126.246 18.3608 125.521 18.7212 124.994 19.4419C124.466 20.1626 124.203 21.1777 124.203 22.4873C124.203 23.6123 124.453 24.5044 124.954 25.1636C125.455 25.814 126.141 26.1392 127.011 26.1392C127.872 26.1392 128.566 25.8096 129.094 25.1504C129.63 24.4824 129.898 23.6035 129.898 22.5137ZM149.621 23.4365H140.814C140.955 25.3965 142.189 26.3765 144.519 26.3765C146.004 26.3765 147.309 26.0249 148.434 25.3218V28.3276C147.186 28.9956 145.564 29.3296 143.569 29.3296C141.39 29.3296 139.698 28.7275 138.494 27.5234C137.29 26.3105 136.688 24.623 136.688 22.4609C136.688 20.2197 137.338 18.4443 138.639 17.1348C139.939 15.8252 141.539 15.1704 143.438 15.1704C145.406 15.1704 146.927 15.7549 147.999 16.9238C149.08 18.0928 149.621 19.6792 149.621 21.6831V23.4365ZM145.758 20.8789C145.758 18.9453 144.976 17.9785 143.411 17.9785C142.743 17.9785 142.163 18.2554 141.671 18.8091C141.188 19.3628 140.893 20.0527 140.788 20.8789H145.758Z" fill="black"/>
</g>
<defs>
<clipPath id="clip0_1014_75">
<rect width="151" height="36" fill="white"/>
</clipPath>
</defs>
</svg>
