<svg width="25" height="50" viewBox="0 0 25 50" fill="none" xmlns="http://www.w3.org/2000/svg">
<path d="M1.76451 50C0.58817 50 0 49.6936 0 49.0809V47.5053C0 46.8925 0.58817 46.5861 1.76451 46.5861C4.32632 46.5861 5.84249 46.2272 6.31302 45.5095C6.8097 44.7917 7.05804 43.6012 7.05804 41.938V34.4275C7.05804 30.8386 8.24745 28.4139 10.6263 27.1534C13.0312 25.8929 15.0702 25.1838 16.7432 25.0263V24.9737C15.0702 24.8162 13.0312 24.1071 10.6263 22.8466C8.24745 21.5861 7.05804 19.1614 7.05804 15.5725V8.06197C7.05804 6.39881 6.8097 5.20833 6.31302 4.49055C5.84249 3.77276 4.32632 3.41387 1.76451 3.41387C0.58817 3.41387 0 3.10749 0 2.49475V0.919118C0 0.306373 0.58817 0 1.76451 0C6.60057 0 9.84204 0.709034 11.4889 2.1271C13.1358 3.52766 13.9592 5.70728 13.9592 8.66597V14.8372C13.9592 17.8659 14.9526 20.0368 16.9393 21.3498C18.9521 22.6453 20.8996 23.2931 22.7818 23.2931C23.6967 23.2931 24.1542 23.687 24.1542 24.4748V25.5252C24.1542 26.313 23.6967 26.7069 22.7818 26.7069C20.8996 26.7069 18.9521 27.3634 16.9393 28.6765C14.9526 29.972 13.9592 32.1341 13.9592 35.1628V41.334C13.9592 44.2927 13.1358 46.4723 11.4889 47.8729C9.84204 49.291 6.60057 50 1.76451 50Z" fill="url(#paint0_linear_1018_76)"/>
<defs>
<linearGradient id="paint0_linear_1018_76" x1="12.7552" y1="-14.9614" x2="12.7552" y2="62.7258" gradientUnits="userSpaceOnUse">
<stop stop-color="#E16C1B"/>
<stop offset="1" stop-color="#CF1860"/>
</linearGradient>
</defs>
</svg>
